<?xml version="1.0" encoding="UTF-8"?>
<svg xmlns="http://www.w3.org/2000/svg" width="211" height="234" viewBox="0 0 211 234">
  <g id="Gruppe_3442" data-name="Gruppe 3442" transform="translate(0 -1)">
    <rect id="Rechteck_722" data-name="Rechteck 722" width="211" height="234" transform="translate(0 1)" fill="#00457c"></rect>
    <g id="Gruppe_3386" data-name="Gruppe 3386" transform="translate(45.703 46.703)">
      <g id="bay-bau-de">
        <path id="Pfad_71" data-name="Pfad 71" d="M119.925,119.353H0V0H119.925Zm-118.4-1.526H118.4V1.526H1.526ZM37.135,74.778,63.523,67.4V84.316L46.736,89.022v-4.2l12.717-3.561V72.807L37.071,79.039v23.146l36.117-10.11V54.685L37.071,64.8v9.983Zm53.54,1.971L86.8,77.83V50.87l-9.6,2.671V90.929l13.544-3.815v21.047l9.6-2.671V47.118l-9.6,2.671ZM23.845,95.444,19.9,96.525V48.39L10.3,51.06v58.564l23.146-6.486V65.749l-9.6,2.671Z" fill="#fff"></path>
      </g>
    </g>
    <path id="Pfad_443" data-name="Pfad 443" d="M-27.5-2.984A1.2,1.2,0,0,0-27.973-4a6.148,6.148,0,0,0-1.687-.75,11.963,11.963,0,0,1-1.93-.777,3.153,3.153,0,0,1-1.937-2.82A2.747,2.747,0,0,1-33.008-10a3.389,3.389,0,0,1,1.492-1.129,5.616,5.616,0,0,1,2.184-.406,5.112,5.112,0,0,1,2.172.441,3.458,3.458,0,0,1,1.48,1.246,3.261,3.261,0,0,1,.527,1.828H-27.5a1.534,1.534,0,0,0-.492-1.215,2.023,2.023,0,0,0-1.383-.434,2.162,2.162,0,0,0-1.336.363,1.146,1.146,0,0,0-.477.957,1.1,1.1,0,0,0,.559.93,6.311,6.311,0,0,0,1.645.7,7.106,7.106,0,0,1,2.914,1.492A2.972,2.972,0,0,1-25.152-3,2.737,2.737,0,0,1-26.27-.684a4.891,4.891,0,0,1-3.008.84,5.808,5.808,0,0,1-2.391-.48,3.783,3.783,0,0,1-1.645-1.316,3.371,3.371,0,0,1-.566-1.937h2.352q0,1.883,2.25,1.883a2.189,2.189,0,0,0,1.3-.34A1.106,1.106,0,0,0-27.5-2.984Zm7.68,3.141A4.15,4.15,0,0,1-22.852-.984,4.054,4.054,0,0,1-24.02-4.023v-.219a5.106,5.106,0,0,1,.492-2.277,3.612,3.612,0,0,1,1.395-1.547,3.914,3.914,0,0,1,2.059-.543,3.508,3.508,0,0,1,2.73,1.094,4.444,4.444,0,0,1,1,3.1v.922H-21.73a2.1,2.1,0,0,0,.66,1.328,2,2,0,0,0,1.395.5,2.437,2.437,0,0,0,2.039-.945l1.109,1.242A3.389,3.389,0,0,1-17.9-.246,4.511,4.511,0,0,1-19.824.156Zm-.258-6.937a1.414,1.414,0,0,0-1.09.453,2.341,2.341,0,0,0-.535,1.3h3.141v-.18a1.669,1.669,0,0,0-.406-1.16A1.459,1.459,0,0,0-20.082-6.781ZM-12.684,0h-2.266V-8.453h2.266Zm-2.4-10.641a1.112,1.112,0,0,1,.34-.836,1.277,1.277,0,0,1,.926-.328,1.28,1.28,0,0,1,.922.328,1.105,1.105,0,0,1,.344.836A1.108,1.108,0,0,1-12.9-9.8a1.283,1.283,0,0,1-.918.328,1.283,1.283,0,0,1-.918-.328A1.108,1.108,0,0,1-15.082-10.641Zm6.961.109v2.078h1.445V-6.8H-8.121v4.219a1.007,1.007,0,0,0,.18.672.9.9,0,0,0,.688.2,3.6,3.6,0,0,0,.664-.055V-.047a4.648,4.648,0,0,1-1.367.2,2.156,2.156,0,0,1-2.422-2.4V-6.8h-1.234V-8.453h1.234v-2.078ZM3.957,0H1.7V-8.7L-1-7.867V-9.7l4.711-1.687h.242Zm8.977-4.547a2.851,2.851,0,0,1-2.062.867A3.049,3.049,0,0,1,8.457-4.715a4.091,4.091,0,0,1-.906-2.793,4.357,4.357,0,0,1,.488-2.051A3.582,3.582,0,0,1,9.4-11.012a3.782,3.782,0,0,1,1.969-.52,3.617,3.617,0,0,1,2,.563A3.7,3.7,0,0,1,14.73-9.352a5.806,5.806,0,0,1,.492,2.414V-6.1a6.579,6.579,0,0,1-1.414,4.469A5.346,5.346,0,0,1,9.8.1L9.246.109V-1.773l.5-.008Q12.691-1.914,12.934-4.547Zm-1.508-.859a1.579,1.579,0,0,0,.941-.281,1.879,1.879,0,0,0,.6-.68V-7.3a3.1,3.1,0,0,0-.437-1.781,1.358,1.358,0,0,0-1.172-.633,1.318,1.318,0,0,0-1.117.621A2.641,2.641,0,0,0,9.8-7.531,2.57,2.57,0,0,0,10.227-6,1.387,1.387,0,0,0,11.426-5.406Zm13.063.7a5.763,5.763,0,0,1-.977,3.609A3.409,3.409,0,0,1,20.652.156,3.433,3.433,0,0,1,17.809-1.07,5.594,5.594,0,0,1,16.8-4.586V-6.68a5.687,5.687,0,0,1,.988-3.617,3.434,3.434,0,0,1,2.848-1.234,3.437,3.437,0,0,1,2.844,1.223A5.576,5.576,0,0,1,24.488-6.8ZM22.23-7a4.158,4.158,0,0,0-.387-2.059A1.307,1.307,0,0,0,20.637-9.7a1.284,1.284,0,0,0-1.176.613,3.891,3.891,0,0,0-.4,1.918v2.766a4.365,4.365,0,0,0,.379,2.066,1.29,1.29,0,0,0,1.215.676,1.268,1.268,0,0,0,1.2-.648A4.26,4.26,0,0,0,22.23-4.3ZM33.809,0h-7.8V-1.547l3.68-3.922a9.078,9.078,0,0,0,1.121-1.445,2.322,2.322,0,0,0,.363-1.172,1.738,1.738,0,0,0-.383-1.191A1.382,1.382,0,0,0,29.7-9.711a1.49,1.49,0,0,0-1.207.527A2.089,2.089,0,0,0,28.051-7.8H25.785a3.729,3.729,0,0,1,.5-1.9,3.5,3.5,0,0,1,1.4-1.348,4.262,4.262,0,0,1,2.055-.488,4.036,4.036,0,0,1,2.73.844A2.985,2.985,0,0,1,33.441-8.3,3.825,3.825,0,0,1,33-6.586a9.551,9.551,0,0,1-1.5,2.039L28.918-1.82h4.891Z" transform="translate(104 187)" fill="#fff"></path>
  </g>
</svg>
