<?xml version="1.0" encoding="UTF-8"?>
<svg xmlns="http://www.w3.org/2000/svg" xmlns:xlink="http://www.w3.org/1999/xlink" id="Layer_1" data-name="Layer 1" width="1920" height="1080" viewBox="0 0 1920 1080">
  <defs>
    <style>
      .cls-1 {
        fill: none;
      }

      .cls-2 {
        fill: #4c4c4b;
      }

      .cls-3 {
        fill: #fff;
      }

      .cls-4 {
        fill: #ffc700;
      }

      .cls-5 {
        clip-path: url(#clippath);
      }
    </style>
    <clipPath id="clippath">
      <rect class="cls-1" x="485" y="411.25398" width="950" height="257.49203"></rect>
    </clipPath>
  </defs>
  <rect class="cls-2" width="1920" height="1080"></rect>
  <g class="cls-5">
    <g id="Group_1" data-name="Group 1">
      <path id="Path_1" data-name="Path 1" class="cls-4" d="M1371.89449,550.55798c0-20.60558,14.16144-37.37147,31.55538-37.37147s31.55013,16.76588,31.55013,37.37147-14.15062,37.36073-31.55013,37.36073-31.55538-16.76052-31.55538-37.36073"></path>
      <path id="Path_2" data-name="Path 2" class="cls-4" d="M528.79427,530.82227c-.26138,10.50492,8.04265,19.23275,18.54758,19.49413.72434.01802,1.44911-.00535,2.17079-.06999,19.2147,0,30.70164-20.84725,30.70164-41.01249v-.73572l-6.29392-.39203c-4.80099-.31148-9.76846-.63369-14.96684-.63369-19.45099,0-30.15924,8.29165-30.15924,23.34978M557.87409,411.25398c24.70308,0,66.12907,9.0757,66.12907,69.85065v63.44396c-.17722,13.19521.68287,26.38395,2.57234,39.44438h-42.89743c-.05907-1.32645-.47258-10.3216-.47258-10.3216-.29536-5.40783-.57462-10.50955-.57462-15.71331v-.78942h-1.75607l-.21481.41351c-11.05731,21.26076-24.16606,30.33109-43.83186,30.33109-13.2327.37909-26.13493-4.16788-36.20613-12.75968-10.71638-10.50143-16.40595-25.09991-15.62201-40.08344,0-47.46751,39.04161-57.4293,71.79468-57.4293,7.55819.02968,15.09568.79224,22.50666,2.27698l.92369.18796v-.97201c-.23092-20.32634-10.98213-30.2022-32.8551-30.2022-15.5546-.35765-30.87018,3.87281-44.03593,12.16358-.04833-2.49716-.75183-37.05462-.76794-38.02127,17.25566-8.21783,36.20069-12.26657,55.30804-11.81988"></path>
      <path id="Path_3" data-name="Path 3" class="cls-4" d="M696.06104,446.57402h1.07403l.1933-.49406c9.20461-23.75792,22.1791-34.82598,40.81382-34.82598,5.26609.10895,10.50972.72035,15.65961,1.82588-.06982,1.31034-2.25549,45.55034-2.34677,47.3977-5.11998-1.41777-10.43417-2.00521-15.74016-1.73996-22.94166,0-36.09331,19.71414-36.09331,54.09439v71.16635h-47.02717v-168.81872h42.7095v31.3944h.75716Z"></path>
      <path id="Path_4" data-name="Path 4" class="cls-4" d="M912.22903,443.53447c10.30011-20.8204,27.78025-32.28049,49.23431-32.28049,40.69566,0,48.86917,27.97893,48.86917,73.12649v99.61787h-47.02717v-90.79457c0-22.22204-7.17463-34.46617-20.19746-34.46617-12.88853,0-28.27969,9.3818-28.27969,54.08901v71.17173h-47.02176v-90.79457c0-22.22204-7.1693-34.46617-20.18132-34.46617-12.88853,0-28.26896,9.3818-28.26896,54.08901v71.17173h-47.02717v-168.81335h42.7095v31.3944h1.8098l.1933-.48869c7.39546-21.43494,27.88661-35.55651,50.55008-34.83672,20.84187,0,36.19542,11.42786,43.24647,32.17845l.59073,1.73459.80018-1.63255Z"></path>
      <path id="Path_5" data-name="Path 5" class="cls-4" d="M1115.42806,530.82227c-.25812,10.50798,8.05093,19.23563,18.55901,19.49377.72045.0177,1.44155-.00554,2.15937-.06962,19.21472,0,30.69628-20.84725,30.69628-41.01249v-.73572l-6.28849-.39203c-4.8063-.31148-9.76846-.63369-14.96678-.63369-19.45104,0-30.15923,8.29165-30.15923,23.34978M1144.50777,411.25398c24.70312,0,66.12364,9.0757,66.12364,69.85065v63.44396c-.17716,13.19521.68292,26.38395,2.57236,39.44438h-42.88666c-.06441-1.32645-.47265-10.3216-.47265-10.3216-.29532-5.41319-.56918-10.50955-.56918-15.71331v-.78942h-1.76145l-.21486.41887c-11.05202,21.25539-24.16606,30.32573-43.82655,30.32573-13.23368.37915-26.13647-4.16995-36.20615-12.76505-10.71949-10.4997-16.41127-25.09886-15.6274-40.08344,0-47.46751,39.04696-57.4293,71.79461-57.4293,7.55648.02922,15.09215.79178,22.5013,2.27698l.92366.18796v-.97201c-.23632-20.32634-10.9822-30.2022-32.85516-30.2022-15.55464-.35798-30.87033,3.87251-44.036,12.16358-.04835-2.49716-.75191-37.05462-.77338-38.02127,17.25791-8.21603,36.20468-12.26291,55.31336-11.81452"></path>
      <path id="Path_6" data-name="Path 6" class="cls-4" d="M1221.88223,499.87349c0-72.33707,47.5589-87.53484,87.45971-87.53484,14.12342-.12517,28.15112,2.32804,41.39382,7.23908-.09145,1.07405-2.68512,32.70473-2.84638,35.03004-9.90203-6.56224-21.47209-10.15997-33.34928-10.36992-35.44342,0-55.75913,20.26727-55.75913,55.60342,0,32.37715,19.03215,54.13197,47.35994,54.13197,4.70649.15082,9.3753-.88523,13.57604-3.01271l.39202-.22018v-34.69172h-21.80314v-30.44923h56.27996v92.71174c-17.23956,5.31118-35.20906,7.86845-53.24576,7.57741-36.65192,0-79.44205-22.55499-79.44205-86.03117"></path>
      <path id="Path_7" data-name="Path 7" class="cls-3" d="M487.19106,630.74596h5.37023v15.6274h17.86677v-15.6274h5.37024v37.35532h-5.37024v-17.01823h-17.86677v17.01831h-5.37024v-37.3554Z"></path>
      <path id="Path_8" data-name="Path 8" class="cls-3" d="M541.62375,630.10205c9.72802-.24509,17.81285,7.44225,18.05799,17.17031.01819.72176-.00801,1.444-.07844,2.16257,0,11.34734-6.57853,19.33288-17.97955,19.33288s-17.97955-7.9748-17.97955-19.33288c-.94923-9.68471,6.13228-18.30523,15.81698-19.25446.71857-.07039,1.44079-.09661,2.16257-.07842M541.62375,664.03657c8.59237,0,12.30858-7.17463,12.30858-14.61237,0-7.59885-4.07064-14.66613-12.30858-14.61237-8.24331-.05367-12.30858,7.00812-12.30858,14.61237,0,7.43775,3.69472,14.61237,12.30858,14.61237"></path>
      <path id="Path_9" data-name="Path 9" class="cls-3" d="M592.99541,636.90023c-2.33356-1.37812-4.99621-2.09988-7.7063-2.08906-8.07109.18363-14.46516,6.87537-14.28155,14.94646.17538,7.70898,6.30863,13.95593,14.01304,14.27296,2.81559.02409,5.5991-.59876,8.1359-1.82053l.32222,5.19299c-2.72974.96996-5.61615,1.42344-8.51182,1.33715-10.13464.73388-18.94531-6.88692-19.67917-17.02159-.0592-.81755-.06371-1.63813-.01348-2.45625-.31872-10.27782,7.75474-18.86802,18.03256-19.18677.57137-.0177,1.14323-.0091,1.7138.02581,2.88334-.05687,5.7465.49199,8.40441,1.61109l-.42963,5.18775Z"></path>
      <path id="Path_10" data-name="Path 10" class="cls-3" d="M600.17006,630.74596h5.37024v15.6274h17.87753v-15.6274h5.37024v37.35532h-5.37024v-17.01823h-17.899v17.01831h-5.37024l.02147-37.3554Z"></path>
      <path id="Path_11" data-name="Path 11" class="cls-3" d="M638.21817,630.74596h10.11217c7.75999,0,13.11412,2.51328,13.11412,9.41938.15016,4.52081-3.20951,8.39321-7.70627,8.88241v.10743c4.82539.0336,8.70996,3.97253,8.67636,8.79792-.00045.064-.0016.12791-.00344.19183,0,8.02848-6.63761,9.95644-14.2365,9.95644h-9.9564l-.00004-37.3554ZM643.58841,646.69557h2.94287c5.19303,0,9.58048-.4833,9.58048-5.99317,0-4.44116-3.80213-5.56354-6.90614-5.56354h-5.61725l.00004,11.55671ZM643.58841,663.71388h4.01157c4.83322,0,9.12938-1.01495,9.12938-6.04692,0-5.77839-5.08561-6.5839-9.66644-6.5839h-3.47993l.00541,12.63082Z"></path>
      <path id="Path_12" data-name="Path 12" class="cls-3" d="M683.07036,630.74596h5.61729l15.7885,37.35532h-5.83207l-3.80209-9.41938h-18.30179l-3.80209,9.41938h-5.61729l15.94952-37.35532ZM685.69108,635.77785l-7.43775,18.51656h14.87557l-7.43783-18.51656Z"></path>
      <path id="Path_13" data-name="Path 13" class="cls-3" d="M738.94229,652.63506c0,10.48809-5.30042,16.11071-14.49962,16.11071s-14.49962-5.61729-14.49962-16.11071v-21.8891h5.37024v21.19627c0,7.1693,2.25016,12.09376,9.12938,12.09376s9.12938-4.92455,9.12938-12.09376v-21.19094h5.37024v21.88377Z"></path>
      <path id="Path_14" data-name="Path 14" class="cls-3" d="M815.46286,635.45615h-11.61579v-4.70969h28.58043v4.70969h-11.61579v32.64563h-5.37024l.02139-32.64563Z"></path>
      <rect id="Rectangle_3" data-name="Rectangle 3" class="cls-3" x="837.7815" y="630.74596" width="5.35412" height="37.35536"></rect>
      <path id="Path_15" data-name="Path 15" class="cls-3" d="M852.92561,630.74596h20.94388v4.70969h-15.57365v10.91771h14.18274v4.70969h-14.18274v12.30862h15.57365v4.70969h-20.94388v-37.3554Z"></path>
      <path id="Path_16" data-name="Path 16" class="cls-3" d="M882.0966,630.74596h19.86994v4.70969h-14.4997v10.91771h13.86054v4.70969h-13.86054v17.01831h-5.37024v-37.3554Z"></path>
      <path id="Path_17" data-name="Path 17" class="cls-3" d="M908.85116,630.74596h10.11213c7.76003,0,13.11404,2.51328,13.11404,9.41938.15012,4.52081-3.20955,8.39321-7.70627,8.88241v.10743c4.82548.0336,8.70992,3.97261,8.67632,8.798-.00049.06392-.00164.12783-.00344.19175,0,8.02848-6.63757,9.95644-14.2365,9.95644h-9.95644l.00016-37.3554ZM914.2214,646.69557h2.94291c5.19307,0,9.58048-.4833,9.58048-5.99317,0-4.44116-3.80217-5.56354-6.90618-5.56354h-5.61721v11.55671ZM914.2214,663.71388h4.01162c4.83318,0,9.12947-1.01495,9.12947-6.04692,0-5.77839-5.08556-6.5839-9.66636-6.5839h-3.47997l.00524,12.63082Z"></path>
      <path id="Path_18" data-name="Path 18" class="cls-3" d="M953.69807,630.74596h5.62262l15.7885,37.35532h-5.83207l-3.79676-9.41938h-18.31252l-3.80217,9.41938h-5.62262l15.95501-37.35532ZM956.31878,635.77785l-7.43783,18.51656h14.8809l-7.44307-18.51656Z"></path>
      <path id="Path_19" data-name="Path 19" class="cls-3" d="M1009.56995,652.63506c0,10.48809-5.30042,16.11071-14.4997,16.11071s-14.4997-5.61729-14.4997-16.11071v-21.8891h5.37024v21.19627c0,7.1693,2.24475,12.09376,9.12947,12.09376s9.12947-4.92455,9.12947-12.09376v-21.19094h5.37024v21.88377Z"></path>
      <path id="Path_20" data-name="Path 20" class="cls-3" d="M1095.6227,636.36318c-2.19329-1.02675-4.58637-1.55668-7.00812-1.55201-2.99667,0-6.53022,1.07403-6.53022,4.97822,0,7.17463,16.05695,5.51519,16.05695,17.82381,0,7.9748-6.15427,11.13249-13.64569,11.13249-2.61645-.11292-5.19881-.6367-7.65252-1.55201l.53706-4.97822c2.45895,1.06035,5.08622,1.67672,7.76003,1.82053,3.67417.3685,6.95125-2.31129,7.31983-5.98538.00377-.03835.00737-.07678.01049-.11521,0-8.35068-16.05695-6.04692-16.05695-17.66271,0-6.63757,5.24666-10.16588,11.98634-10.16588,2.71331.00885,5.40695.46052,7.97472,1.33715l-.75191,4.91922Z"></path>
      <path id="Path_21" data-name="Path 21" class="cls-3" d="M1112.8557,635.45615h-11.61054v-4.70969h28.56969v4.70969h-11.61579v32.64563h-5.37024l.02688-32.64563Z"></path>
      <path id="Path_22" data-name="Path 22" class="cls-3" d="M1134.85206,630.74596h9.12947c7.38407,0,14.4997,1.17605,14.4997,10.11213-.06818,4.36938-3.36525,8.01094-7.70627,8.51186v.10743c1.65935.6444,2.45961,1.44458,3.64107,3.75915l7.06187,14.87557h-6.06856l-5.72997-12.95302c-1.65935-3.64099-3.42621-3.64099-6.26161-3.64099h-3.22217v16.58868h-5.37024l.02671-37.36081ZM1140.2223,646.803h4.54851c5.08556,0,8.08223-2.25016,8.08223-5.83207,0-3.37254-2.56696-5.51519-7.5183-5.51519h-5.13932l.02688,11.34726Z"></path>
      <path id="Path_23" data-name="Path 23" class="cls-3" d="M1179.68832,630.74596h5.61721l15.7885,37.35532h-5.83207l-3.80217-9.41938h-18.30171l-3.79676,9.41938h-5.62262l15.94961-37.35532ZM1182.30903,635.77785l-7.43783,18.51656h14.8809l-7.44307-18.51656Z"></path>
      <path id="Path_24" data-name="Path 24" class="cls-3" d="M1223.47717,636.36318c-2.19346-1.02675-4.5862-1.55668-7.00812-1.55201-2.9965,0-6.53022,1.07403-6.53022,4.97822,0,7.17463,16.05695,5.51519,16.05695,17.82381,0,7.9748-6.15427,11.13249-13.64585,11.13249-2.61629-.11292-5.19881-.6367-7.65252-1.55201l.53689-4.97822c2.45895,1.06043,5.08606,1.67681,7.76003,1.82053,3.67401.3685,6.95141-2.31129,7.31983-5.98538.00393-.03835.00721-.07678.01049-.11521,0-8.35068-16.05695-6.04692-16.05695-17.66271,0-6.63757,5.24666-10.16588,11.98634-10.16588,2.71331.00877,5.40695.46044,7.97472,1.33715l-.75158,4.91922Z"></path>
      <path id="Path_25" data-name="Path 25" class="cls-3" d="M1250.23165,636.36318c-2.1951-1.0274-4.59014-1.55733-7.01369-1.55201-2.9965,0-6.53022,1.07403-6.53022,4.97822,0,7.17463,16.05695,5.51519,16.05695,17.82381,0,7.9748-6.15427,11.13249-13.64585,11.13249-2.61629-.11284-5.19881-.63662-7.65252-1.55201l.53689-4.97822c2.45895,1.06035,5.08606,1.67672,7.76003,1.82053,3.67401.3685,6.95141-2.31129,7.31983-5.98538.00393-.03835.00721-.07678.01049-.11521,0-8.35068-16.05695-6.04692-16.05695-17.66271,0-6.63757,5.24666-10.16588,11.98634-10.16588,2.71331.00885,5.40695.46052,7.97472,1.33715l-.74601,4.91922Z"></path>
      <path id="Path_26" data-name="Path 26" class="cls-3" d="M1260.29019,630.74596h20.94405v4.70969h-15.57381v10.91771h14.18274v4.70969h-14.18274v12.30862h15.57381v4.70969h-20.94405v-37.3554Z"></path>
      <path id="Path_27" data-name="Path 27" class="cls-3" d="M1289.72438,630.74596h7.27656l16.48109,30.07335h.10751v-30.07335h5.37024v37.35532h-6.8793l-16.9108-30.71775h-.10751v30.71775h-5.37024l.03245-37.35532Z"></path>
      <path id="Path_28" data-name="Path 28" class="cls-3" d="M1328.10023,630.74596h10.11213c7.76003,0,13.1142,2.51328,13.1142,9.41938.15012,4.52081-3.20955,8.39321-7.70627,8.88241v.10743c4.82548.0336,8.70992,3.97261,8.67616,8.798-.00033.06392-.00131.12783-.00328.19175,0,8.02848-6.63773,9.95644-14.2365,9.95644h-9.95644v-37.3554ZM1333.47046,646.69557h2.94275c5.19291,0,9.58048-.4833,9.58048-5.99317,0-4.44116-3.80217-5.56354-6.90618-5.56354h-5.61705v11.55671ZM1333.47046,663.71388h4.01162c4.83334,0,9.12947-1.01495,9.12947-6.04692,0-5.77839-5.08573-6.5839-9.66636-6.5839h-3.47472v12.63082Z"></path>
      <path id="Path_29" data-name="Path 29" class="cls-3" d="M1372.94697,630.74596h5.61738l15.7885,37.35532h-5.83207l-3.80217-9.41938h-18.30187l-3.7966,9.41938h-5.62262l15.94944-37.35532ZM1375.56752,635.77785l-7.43783,18.51656h14.86484l-7.42701-18.51656Z"></path>
      <path id="Path_30" data-name="Path 30" class="cls-3" d="M1428.81885,652.63506c0,10.48809-5.29518,16.11071-14.4997,16.11071s-14.4997-5.61729-14.4997-16.11071v-21.8891h5.37024v21.19627c0,7.1693,2.24492,12.09376,9.12947,12.09376s9.12947-4.92455,9.12947-12.09376v-21.19094h5.37024v21.88377Z"></path>
      <path id="Path_31" data-name="Path 31" class="cls-4" d="M784.06842,649.4723c0,3.10827-2.51976,5.62803-5.62803,5.62795-3.10827,0-5.62803-2.51976-5.62795-5.62803,0-3.10819,2.51967-5.62795,5.62795-5.62795s5.62803,2.51976,5.62803,5.62795v.00008"></path>
      <path id="Path_32" data-name="Path 32" class="cls-4" d="M1052.37073,649.4723c0,3.10827-2.51976,5.62803-5.62803,5.62795-3.10827,0-5.62803-2.51976-5.62803-5.62803s2.51976-5.62795,5.62803-5.62795,5.62803,2.51976,5.62803,5.62795v.00008"></path>
    </g>
  </g>
</svg>
