<?xml version="1.0" encoding="UTF-8"?>
<svg id="Ebene_1" xmlns="http://www.w3.org/2000/svg" viewBox="0 0 1000 1000">
  <defs>
    <style>
      .cls-1 {
        fill: #f6d562;
      }

      .cls-2 {
        fill: #1f9150;
      }
    </style>
  </defs>
  <circle class="cls-2" cx="500" cy="505" r="491"/>
  <g>
    <path class="cls-1" d="M553.48,405.32l.29,235.12c.7,12.43-10.52,28.38-22.99,30.46-9.52,1.59-63.61,1.6-72.13-.52-10.95-2.72-19.95-14.39-21.14-25.34l.2-236.86,58.5-43.47,57.26,40.61Z"/>
    <polygon class="cls-1" points="602.53 278.45 537.61 324.55 561.85 394.63 496.21 352.84 430.56 395.79 454.94 323.82 388.73 281.34 470.11 279.06 495.04 208.7 521.17 279.04 602.53 278.45"/>
    <path class="cls-1" d="M396.72,616.71l.8,4.54-20.27,60.85,55.02,36.74c3.26,2.22,4.21,5.11.59,7.53l-70.92,1.12-22.51,62.31c-2.45,1.95-5.64,1.57-6.76-1.58l-21.77-59.57-72.72-1.68-1.25-2.94,1.04-2.54,56.52-37.66-21.42-59.1c-1.26-5.14-1.64-9.04,4.86-7.3l57.72,37.26,54.71-37.03,6.34-.95Z"/>
    <path class="cls-1" d="M717.56,501.54v144.67c0,11.07-14.74,20.66-24.94,21.54-13.99,1.2-47.96,1.62-61.32-.35-12.36-1.82-21.41-13.52-21.84-25.8,4.19-93.55-5.43-191.76,0-284.78,7.22-123.79,159.94-177.82,241.71-83.58,42.53,49.02,44.18,121.21,6.04,173.29,7.23,11.6,14.63,23.11,19.26,36.13,12.19,34.24,10.93,117.37,8.49,155.47-.98,15.26-7.25,27.89-23.89,29.56-14.15,1.42-47.59,1.59-61.58.02-10.57-1.19-21.38-10.82-22.68-21.47-4.45-36.54,4.68-82.89-.27-119.41-1.1-8.11-5.77-16.5-12.56-21.14-1.21-.83-7.86-4.14-8.64-4.14h-37.76ZM721.05,388.82h33.12c3.29,0,10.68-6.52,12.81-9.27,16.37-21.09-5.03-50.82-30.45-39.75-6.47,2.82-15.47,13.42-15.47,20.55v28.47Z"/>
    <path class="cls-1" d="M281.82,501.54h-57.52l-1.74,1.74v142.92c0,11.1-14.78,20.66-24.94,21.54-11.49.99-55.65,1.47-64.85-1.47-10.13-3.23-16.72-12.07-18.15-22.52,3.22-93.49-4.72-190.35-.18-283.45,8.49-174.24,256.67-179.45,275.49-9.29l-.26,246.17-53.99,40.07-53.85-38.69v-97.03ZM278.33,388.82v-29.63c0-.45-2.74-7.4-3.25-8.37-8.47-16.28-32.04-17.61-43.23-3.24-.78,1-4.65,7.66-4.65,8.13v33.12h51.13Z"/>
  </g>
</svg>