<?xml version="1.0" encoding="UTF-8"?>
<svg id="Ebene_1" xmlns="http://www.w3.org/2000/svg" viewBox="0 0 1000 1000">
  <defs>
    <style>
      .cls-1 {
        fill: #fff;
      }
    </style>
  </defs>
  <path class="cls-1" d="M705.62,982h-411.64c-148.44,0-269.2-122.49-269.2-273.04v-417.51C24.78,140.89,145.54,18.4,293.98,18.4h411.64c148.44,0,269.2,122.49,269.2,273.04v417.51c0,150.56-120.76,273.04-269.2,273.04ZM293.98,111.19c-98,0-177.72,80.86-177.72,180.26v417.51c0,99.39,79.73,180.26,177.72,180.26h411.64c98,0,177.72-80.86,177.72-180.26v-417.51c0-99.39-79.73-180.26-177.72-180.26h-411.64Z"/>
  <g>
    <path class="cls-1" d="M499.8,751.37c-136.55,0-247.64-112.68-247.64-251.17s111.09-251.17,247.64-251.17,247.64,112.68,247.64,251.17-111.09,251.17-247.64,251.17ZM499.8,341.81c-86.11,0-156.16,71.05-156.16,158.39s70.05,158.39,156.16,158.39,156.16-71.05,156.16-158.39-70.05-158.39-156.16-158.39Z"/>
    <ellipse class="cls-1" cx="752.67" cy="245.72" rx="56.85" ry="57.66"/>
  </g>
</svg>