<?xml version="1.0" encoding="UTF-8"?>
<svg id="Layer_1" data-name="Layer 1" xmlns="http://www.w3.org/2000/svg" viewBox="0 0 1878.18 470.17">
  <defs>
    <style>
      .cls-1 {
        font-size: 99.19px;
        letter-spacing: -.01em;
      }

      .cls-2 {
        font-size: 88.56px;
        letter-spacing: -.01em;
      }

      .cls-3 {
        font-size: 159.41px;
      }

      .cls-4 {
        fill: #ece2cc;
        font-family: BebasNeueBold, 'Bebas Neue';
      }

      .cls-5 {
        letter-spacing: -.01em;
      }

      .cls-6 {
        letter-spacing: -.01em;
      }

      .cls-7 {
        letter-spacing: -.01em;
      }

      .cls-8 {
        letter-spacing: -.01em;
      }

      .cls-9 {
        letter-spacing: -.01em;
      }

      .cls-10 {
        letter-spacing: -.01em;
      }
    </style>
  </defs>
  <text class="cls-4" transform="translate(2.36 135.97) rotate(-1)"><tspan class="cls-3"><tspan class="cls-10" x="0" y="0">F</tspan><tspan class="cls-10" x="52.82" y=".91">l</tspan><tspan class="cls-10" x="104.84" y="1.9">u</tspan><tspan class="cls-10" x="166.27" y="2.9">f</tspan><tspan class="cls-10" x="219.08" y="3.82">f</tspan><tspan class="cls-10" x="271.9" y="4.82">y</tspan><tspan class="cls-10" x="333.01" y="5.55"> </tspan><tspan class="cls-10" x="355.71" y="6.48">M</tspan><tspan class="cls-10" x="439.92" y="7.77">a</tspan><tspan class="cls-10" x="502.78" y="8.83">c</tspan><tspan class="cls-10" x="562.29" y="9.93">h</tspan><tspan class="cls-10" x="628.34" y="10.75">i</tspan><tspan class="cls-10" x="656.61" y="11.58">n</tspan><tspan class="cls-10" x="722.66" y="12.65">e</tspan><tspan class="cls-10" x="779.31" y="13.34"> </tspan><tspan class="cls-10" x="802.01" y="13.9">-</tspan><tspan class="cls-7" x="843.03" y="14.45"> </tspan><tspan class="cls-8" x="865.73" y="15.15">S</tspan><tspan class="cls-8" x="923.33" y="16.2">a</tspan><tspan class="cls-8" x="986.19" y="17.33">n</tspan><tspan class="cls-6" x="1052.24" y="18.1"> </tspan><tspan class="cls-5" x="1074.93" y="19.04">M</tspan><tspan class="cls-5" x="1159.15" y="20.32">a</tspan><tspan class="cls-5" x="1222.01" y="21.35">t</tspan><tspan class="cls-5" x="1276.74" y="22.3">t</tspan><tspan class="cls-6" x="1331.47" y="23.03">i</tspan><tspan class="cls-9" x="1359.74" y="23.82">a</tspan><tspan class="cls-6" x="1422.61" y="24.57"> </tspan><tspan class="cls-6" x="1445.31" y="25.12">-</tspan><tspan class="cls-6" x="1486.33" y="25.68"> </tspan><tspan class="cls-9" x="1509.03" y="26.36">T</tspan><tspan class="cls-9" x="1563.76" y="27.38">a</tspan><tspan class="cls-9" x="1626.62" y="28.47">u</tspan><tspan class="cls-9" x="1688.04" y="29.58">n</tspan><tspan class="cls-9" x="1754.09" y="30.69">u</tspan><tspan class="cls-9" x="1815.51" y="31.73">s</tspan></tspan><tspan class="cls-1"><tspan x="53.91" y="107.09">G</tspan><tspan x="91.33" y="107.76">r</tspan><tspan x="129.95" y="108.43">o</tspan><tspan x="167.97" y="109.07">s</tspan><tspan x="203.81" y="109.69">s</tspan><tspan x="239.65" y="110.13"> </tspan><tspan x="253.78" y="110.41">i</tspan><tspan x="271.37" y="110.92">n</tspan><tspan x="312.47" y="111.4"> </tspan><tspan x="326.59" y="111.74">j</tspan><tspan x="350.73" y="112.29">a</tspan><tspan x="389.84" y="112.94">p</tspan><tspan x="425.98" y="113.6">a</tspan><tspan x="465.09" y="114.3">n</tspan><tspan x="506.19" y="114.78"> </tspan><tspan x="520.31" y="115.13">-</tspan><tspan x="545.84" y="115.48"> </tspan><tspan x="559.96" y="115.89">F</tspan><tspan x="592.83" y="116.5">c</tspan><tspan x="629.86" y="116.97">.</tspan><tspan x="647.06" y="117.24"> </tspan><tspan x="661.18" y="117.71">K</tspan><tspan x="700.99" y="118.34">l</tspan><tspan x="733.35" y="118.93">e</tspan><tspan x="768.6" y="119.39">i</tspan><tspan x="786.19" y="119.91">n</tspan><tspan x="827.29" y="120.58">s</tspan><tspan x="863.13" y="121.19">t</tspan><tspan x="897.18" y="121.83">a</tspan><tspan x="936.29" y="122.51">d</tspan><tspan x="975.51" y="123.15">t</tspan><tspan x="1009.56" y="123.57"> </tspan><tspan x="1023.69" y="123.92">-</tspan><tspan x="1049.22" y="124.26"> </tspan><tspan x="1063.34" y="124.71">C</tspan><tspan x="1100.37" y="125.37">a</tspan><tspan x="1139.48" y="126">l</tspan><tspan x="1171.85" y="126.61">u</tspan><tspan x="1210.07" y="127.29">a</tspan><tspan x="1249.18" y="127.75"> </tspan><tspan x="1263.31" y="128.1">-</tspan><tspan x="1288.84" y="128.44"> </tspan><tspan x="1302.96" y="128.91">B</tspan><tspan x="1341.97" y="129.56">e</tspan><tspan x="1377.21" y="130.2">a</tspan><tspan x="1416.33" y="130.84">t</tspan><tspan x="1450.39" y="131.26"> </tspan><tspan x="1464.51" y="131.84">M</tspan><tspan x="1516.91" y="132.63">o</tspan><tspan x="1554.93" y="133.3">u</tspan><tspan x="1593.15" y="133.95">s</tspan><tspan x="1628.99" y="134.56">t</tspan><tspan x="1663.04" y="135.19">a</tspan><tspan x="1702.15" y="135.86">c</tspan><tspan x="1739.18" y="136.54">h</tspan><tspan x="1780.28" y="137.21">e</tspan></tspan><tspan class="cls-2"><tspan x="83.29" y="213.85">S</tspan><tspan x="115.29" y="214.42">o</tspan><tspan x="149.24" y="215.02">u</tspan><tspan x="183.36" y="215.56">l</tspan><tspan x="212.26" y="216.1">s</tspan><tspan x="244.26" y="216.51">i</tspan><tspan x="259.97" y="216.94">g</tspan><tspan x="293.39" y="217.55">n</tspan><tspan x="330.08" y="217.98"> </tspan><tspan x="342.69" y="218.29">-</tspan><tspan x="365.49" y="218.6"> </tspan><tspan x="378.09" y="219.12">M</tspan><tspan x="424.88" y="219.67">i</tspan><tspan x="440.59" y="220.11">d</tspan><tspan x="475.6" y="220.73">n</tspan><tspan x="512.29" y="221.19">i</tspan><tspan x="528" y="221.62">g</tspan><tspan x="561.41" y="222.23">h</tspan><tspan x="598.11" y="222.82">t</tspan><tspan x="628.52" y="223.19"> </tspan><tspan x="641.12" y="223.6">O</tspan><tspan x="675.07" y="224.22">n</tspan><tspan x="711.76" y="224.81">e</tspan><tspan x="743.24" y="225.2"> </tspan><tspan x="755.85" y="225.5">-</tspan><tspan x="778.64" y="225.81"> </tspan><tspan x="791.25" y="226.23">B</tspan><tspan x="826.08" y="226.83">r</tspan><tspan x="860.56" y="227.43">o</tspan><tspan x="894.51" y="228.04">k</tspan><tspan x="930.05" y="228.62">e</tspan><tspan x="961.52" y="229.22">n</tspan><tspan x="998.21" y="229.65"> </tspan><tspan x="1010.82" y="230.06">b</tspan><tspan x="1045.65" y="230.67">a</tspan><tspan x="1080.57" y="231.25">s</tspan><tspan x="1112.57" y="231.81">s</tspan><tspan x="1144.58" y="232.2"> </tspan><tspan x="1157.19" y="232.51">-</tspan><tspan x="1179.98" y="232.82"> </tspan><tspan x="1192.59" y="233.25">H</tspan><tspan x="1229.28" y="233.87">y</tspan><tspan x="1263.23" y="234.47">d</tspan><tspan x="1298.24" y="235.07">r</tspan><tspan x="1332.72" y="235.68">a</tspan><tspan x="1367.64" y="236.3">h</tspan><tspan x="1404.33" y="236.92">o</tspan><tspan x="1438.28" y="237.51">g</tspan><tspan x="1471.7" y="237.91"> </tspan><tspan x="1484.31" y="238.22">-</tspan><tspan x="1507.1" y="238.53"> </tspan><tspan x="1519.71" y="238.93">c</tspan><tspan x="1552.77" y="239.51">ø</tspan><tspan x="1586.72" y="240.06">l</tspan><tspan x="1615.62" y="240.62">d</tspan><tspan x="1650.63" y="241.2">s</tspan><tspan x="1682.63" y="241.75">t</tspan><tspan x="1713.03" y="242.32">a</tspan><tspan x="1747.96" y="242.92">r</tspan></tspan></text>
</svg>