<?xml version="1.0" encoding="UTF-8"?>
<svg id="Ebene_2" xmlns="http://www.w3.org/2000/svg" viewBox="0 0 989.08 273.22">
  <defs>
    <style>
      .cls-1 {
        fill: #ffffff;
      }
    </style>
  </defs>
  <g id="Ebene_1-2" data-name="Ebene_1">
    <g>
      <path class="cls-1" d="M312.47,132.68v25.23c0,.71,1.59,4.31,2.11,5.12,2.66,4.15,8.44,6.02,12.91,4.09,9.88-4.27,4.88-22.75,19.61-24.05,5.39-.48,24.77-.7,29.22.68,14.53,4.51,8.04,28.94,3.52,39.23-26.26,59.74-114.34,43.43-117.96-24.55-1.36-25.58,1.02-52.36-.03-78.06,3.33-66.62,87.6-85.63,116.64-27.83,8.41,16.75,8.11,47.01,6.84,65.85-.36,5.4-2.08,9.97-6.94,12.63-.51.28-3.74,1.65-3.96,1.65h-61.97ZM334.73,80.64c-1.99-14.04-20.18-13.76-22.26,0h22.26Z"/>
      <path class="cls-1" d="M844.07,100.52l.13,105.28c.3,5.57-4.58,12.71-10.01,13.64-4.15.71-27.69.72-31.4-.23-4.77-1.22-8.69-6.44-9.2-11.35l.09-106.06,25.47-19.47,24.93,18.18Z"/>
      <polygon class="cls-1" points="865.42 43.71 837.15 64.35 847.71 95.73 819.13 77.02 790.55 96.25 801.16 64.03 772.34 45 807.77 43.98 818.62 12.48 830 43.97 865.42 43.71"/>
      <polygon class="cls-1" points="202.69 31.22 174.38 51.03 185.49 82.72 156.39 64 127.82 83.77 138.37 51.87 109.6 31.74 144.76 31.74 156.4 0 167.53 31.22 202.69 31.22"/>
      <path class="cls-1" d="M775.81,195.17l.35,2.04-8.82,27.25,23.95,16.45c1.42.99,1.83,2.29.26,3.37l-30.88.5-9.8,27.9c-1.07.87-2.46.7-2.94-.71l-9.48-26.67-31.66-.75-.55-1.32.45-1.14,24.61-16.87-9.33-26.46c-.55-2.3-.72-4.05,2.12-3.27l25.13,16.68,23.82-16.58,2.76-.42Z"/>
      <path class="cls-1" d="M205.72,143.6h-25.8v64.78c0,.2-1.24,3.18-1.5,3.66-1.79,3.29-5.24,5.58-8.88,5.96-5.95.62-21.42.72-27.18-.13-5.14-.76-9.35-5.71-9.51-11.03l.11-118.03,23.42-18.04,23.54,16.9v7.54h25.8V28.87c0-2.82,4.66-7.32,7.31-8.09,7.99-2.33,22.55.62,31.28-.38,3.65,1.34,6.72,4.22,7.73,8.18l.25,178.78c.12,5.43-4.88,10.07-9.88,10.65-5.26.61-22.73.73-27.71-.13-3.09-.53-8.97-5.08-8.97-8.46v-65.82Z"/>
      <path class="cls-1" d="M103.35,38.16c5.43,5.61,10.56,13.47,13.34,20.88,3.41,9.07,8.87,32.05-5.37,34.05-4.89.68-23.43.74-28.17-.08-8.45-1.45-8.32-11.45-11.41-17.4-6.57-12.65-22.81-7.71-23.89,6.32-1.84,24.07,1.41,50.61.02,74.94.67,9.16,10.03,15.82,18.37,11.62,8.88-4.48,6.33-19.9,15.15-22.92,4.59-1.58,21.05-1.35,26.45-.94,12.95.99,13.72,9.14,12.31,20.51-5.62,45.19-57.41,68.21-93.69,41.85C9.94,194.97,1.8,177.59.81,156.89c-1.1-23.1-1.07-52.38,0-75.49C3.36,26.3,65.24-1.21,103.35,38.16Z"/>
      <path class="cls-1" d="M570.98,143.6v64.26c0,.27-1.06,3.34-1.31,3.85-1.67,3.43-5.39,5.9-9.06,6.29-5.95.62-21.42.72-27.18-.13-5.32-.79-9.61-6.03-9.51-11.55V77.24c4.21-55.38,72.52-78.26,106.75-33.78,16.9,21.96,17.09,52.91,1.03,75.42,5.77,9.07,10.77,19.71,11.62,30.72,1.45,18.75-1.08,39.34.03,58.29-.47,5.42-4.68,9.58-9.89,10.12-5.89.61-21.57.76-27.27-.04-6.75-.94-9.47-6.91-9.93-13.2-1.2-16.61.98-34.71-.03-51.48.03-3.29-5.98-9.67-8.81-9.67h-16.44ZM572.5,93.13h14.42c.19,0,2.84-1.55,3.26-1.85,10.34-7.5,2.45-25.36-10.58-20.25-2.74,1.08-7.09,5.72-7.09,8.84v13.27Z"/>
      <path class="cls-1" d="M439.96,130.59v28.36c0,.18,1.08,2.85,1.31,3.33,4.47,9.5,17.18,10.07,22.18.54,2.69-5.13,2.87-14.12,8.88-16.88,4.28-1.97,21.73-1.7,27.09-1.32,14.71,1.04,14.2,11.25,12.24,23.56-3.46,21.72-21.35,41.67-41.85,47.49-37.52,10.63-74.44-15.65-76.89-55.68-1.74-28.29.84-58.92.56-87.35,8.17-53.29,74.13-72,106.89-28.36,8.19,10.91,11.81,23.39,12.47,37.13.39,8.22,1.17,34.31-.66,40.99-.7,2.57-5.19,8.2-7.71,8.2h-64.5ZM463.73,80.64c-1.56-14.22-20.01-13.66-22.26,0h22.26Z"/>
      <path class="cls-1" d="M915.5,143.6v64.78c0,4.96-6.42,9.25-10.86,9.64-6.09.54-20.88.73-26.7-.15-5.38-.81-9.32-6.05-9.51-11.55,1.82-41.89-2.36-85.87,0-127.52,3.14-55.43,69.63-79.62,105.23-37.43,18.52,21.95,19.24,54.27,2.63,77.6,3.15,5.2,6.37,10.35,8.39,16.18,5.31,15.33,4.76,52.56,3.69,69.61-.43,6.83-3.16,12.49-10.4,13.24-6.16.64-20.72.71-26.81,0-4.6-.53-9.31-4.84-9.88-9.61-1.94-16.36,2.04-37.12-.12-53.47-.48-3.63-2.51-7.39-5.47-9.47-.53-.37-3.42-1.85-3.76-1.85h-16.44ZM917.02,93.13h14.42c1.43,0,4.65-2.92,5.58-4.15,7.13-9.44-2.19-22.76-13.26-17.8-2.82,1.26-6.74,6.01-6.74,9.2v12.75Z"/>
      <path class="cls-1" d="M725.79,143.6h-25.04l-.76.78v64c0,4.97-6.44,9.25-10.86,9.64-5,.44-24.23.66-28.23-.66-4.41-1.45-7.28-5.41-7.9-10.09,1.4-41.86-2.06-85.23-.08-126.92C656.61,2.34,764.66,0,772.86,76.2l-.12,110.23-23.51,17.94-23.45-17.32v-43.45ZM724.27,93.13v-13.27c0-.2-1.2-3.32-1.41-3.75-3.69-7.29-13.95-7.88-18.82-1.45-.34.45-2.03,3.43-2.03,3.64v14.83h22.26Z"/>
    </g>
  </g>
</svg>