<?xml version="1.0" encoding="UTF-8"?>
<svg id="Ebene_1" data-name="Ebene 1" xmlns="http://www.w3.org/2000/svg" viewBox="0 0 907 306.61">
  <defs>
    <style>
      .cls-1 {
        fill: #fff;
        font-family: AzoSansUber-Regular, 'Azo Sans Uber';
        font-size: 103.25px;
      }

      .cls-2 {
        fill: #f6d562;
      }
    </style>
  </defs>
  <g>
    <path class="cls-2" d="M286.54,118.3v22.5c0,.64,1.46,3.85,1.93,4.56,2.44,3.7,7.74,5.37,11.84,3.65,9.06-3.81,4.47-20.29,17.99-21.45,4.94-.42,22.71-.62,26.79.61,13.33,4.03,7.37,25.8,3.23,34.98-24.08,53.27-104.86,38.72-108.17-21.89-1.25-22.81.94-46.68-.02-69.6,3.06-59.4,80.34-76.35,106.96-24.81,7.71,14.93,7.44,41.91,6.27,58.72-.33,4.82-1.91,8.89-6.37,11.26-.47.25-3.43,1.47-3.63,1.47h-56.83ZM306.95,71.91c-1.82-12.52-18.51-12.27-20.41,0h20.41Z"/>
    <path class="cls-2" d="M774.03,89.63l.12,93.87c.28,4.96-4.2,11.33-9.18,12.16-3.8.64-25.4.64-28.8-.21-4.37-1.09-7.97-5.75-8.44-10.12l.08-94.57,23.36-17.36,22.86,16.21Z"/>
    <polygon class="cls-2" points="793.61 38.97 767.69 57.38 777.36 85.36 751.16 68.67 724.95 85.82 734.68 57.09 708.25 40.12 740.74 39.22 750.69 11.13 761.12 39.21 793.61 38.97"/>
    <polygon class="cls-2" points="185.87 27.83 159.91 45.5 170.1 73.76 143.41 57.07 117.21 74.69 126.89 46.24 100.51 28.3 132.75 28.3 143.42 0 153.63 27.83 185.87 27.83"/>
    <path class="cls-2" d="M711.44,174.02l.32,1.81-8.09,24.3,21.97,14.67c1.3.89,1.68,2.04.24,3.01l-28.31.45-8.99,24.88c-.98.78-2.25.63-2.7-.63l-8.69-23.78-29.03-.67-.5-1.17.42-1.02,22.57-15.04-8.55-23.59c-.5-2.05-.66-3.61,1.94-2.91l23.04,14.88,21.84-14.79,2.53-.38Z"/>
    <path class="cls-2" d="M188.65,128.04h-23.66v57.76c0,.18-1.14,2.84-1.38,3.26-1.64,2.94-4.81,4.98-8.14,5.31-5.45.55-19.64.64-24.93-.12-4.72-.68-8.58-5.09-8.72-9.84l.1-105.24,21.47-16.09,21.58,15.07v6.73h23.66V25.75c0-2.51,4.27-6.52,6.7-7.21,7.32-2.07,20.68.55,28.68-.34,3.35,1.19,6.16,3.76,7.09,7.29l.22,159.4c.11,4.84-4.47,8.98-9.06,9.49-4.82.54-20.84.65-25.41-.11-2.83-.47-8.23-4.53-8.23-7.54v-58.69Z"/>
    <path class="cls-2" d="M94.78,34.03c4.98,5.01,9.68,12.01,12.24,18.61,3.13,8.09,8.13,28.58-4.92,30.36-4.48.61-21.49.66-25.83-.07-7.75-1.3-7.63-10.21-10.46-15.52-6.02-11.28-20.92-6.87-21.91,5.63-1.69,21.46,1.3,45.12.02,66.82.61,8.17,9.2,14.11,16.84,10.36,8.14-3.99,5.81-17.74,13.89-20.44,4.21-1.41,19.3-1.2,24.25-.83,11.88.89,12.58,8.15,11.29,18.28-5.15,40.29-52.65,60.82-85.91,37.32-15.16-10.71-22.63-26.21-23.53-44.66-1.01-20.6-.98-46.7,0-67.31C3.08,23.45,59.83-1.08,94.78,34.03Z"/>
    <path class="cls-2" d="M523.6,128.04v57.29c0,.24-.98,2.98-1.2,3.44-1.53,3.06-4.94,5.26-8.31,5.61-5.45.55-19.64.64-24.93-.12-4.88-.7-8.82-5.37-8.72-10.3v-115.09c3.86-49.38,66.5-69.78,97.89-30.12,15.5,19.58,15.67,47.17.95,67.24,5.29,8.09,9.88,17.57,10.66,27.39,1.33,16.72-.99,35.08.03,51.97-.43,4.84-4.3,8.54-9.07,9.02-5.4.55-19.78.68-25.01-.04-6.19-.84-8.69-6.16-9.1-11.77-1.1-14.81.9-30.95-.02-45.91.02-2.93-5.48-8.62-8.08-8.62h-15.08ZM525,83.04h13.22c.17,0,2.61-1.38,2.99-1.65,9.48-6.69,2.25-22.61-9.71-18.06-2.52.96-6.5,5.1-6.5,7.88v11.83Z"/>
    <path class="cls-2" d="M403.45,116.44v25.28c0,.16.99,2.54,1.2,2.97,4.1,8.47,15.75,8.98,20.34.48,2.47-4.57,2.63-12.59,8.14-15.05,3.93-1.75,19.92-1.51,24.84-1.17,13.49.93,13.02,10.03,11.22,21-3.17,19.37-19.58,37.16-38.38,42.34-34.4,9.48-68.26-13.95-70.51-49.64-1.59-25.22.77-52.53.51-77.88,7.5-47.52,67.98-64.2,98.02-25.29,7.51,9.73,10.83,20.85,11.43,33.1.36,7.33,1.07,30.59-.6,36.55-.64,2.29-4.76,7.31-7.07,7.31h-59.15ZM425.25,71.91c-1.43-12.68-18.35-12.18-20.41,0h20.41Z"/>
    <path class="cls-2" d="M839.53,128.04v57.76c0,4.42-5.89,8.25-9.96,8.6-5.59.48-19.15.65-24.48-.14-4.94-.73-8.55-5.4-8.72-10.3,1.67-37.35-2.17-76.56,0-113.7,2.88-49.43,63.86-70.99,96.5-33.37,16.98,19.57,17.64,48.39,2.41,69.19,2.89,4.63,5.84,9.23,7.69,14.42,4.87,13.67,4.36,46.86,3.39,62.07-.39,6.09-2.9,11.13-9.54,11.8-5.65.57-19,.63-24.58,0-4.22-.47-8.54-4.32-9.06-8.57-1.78-14.59,1.87-33.09-.11-47.68-.44-3.24-2.3-6.59-5.01-8.44-.48-.33-3.14-1.65-3.45-1.65h-15.08ZM840.93,83.04h13.22c1.31,0,4.26-2.6,5.11-3.7,6.54-8.42-2.01-20.29-12.16-15.87-2.58,1.13-6.18,5.36-6.18,8.2v11.37Z"/>
    <path class="cls-2" d="M665.56,128.04h-22.96l-.7.7v57.06c0,4.43-5.9,8.25-9.96,8.6-4.59.39-22.22.59-25.89-.59-4.04-1.29-6.68-4.82-7.24-8.99,1.29-37.32-1.89-76-.07-113.17,3.39-69.56,102.47-71.65,109.99-3.71l-.11,98.28-21.56,16-21.5-15.45v-38.74ZM664.17,83.04v-11.83c0-.18-1.1-2.96-1.3-3.34-3.38-6.5-12.79-7.03-17.26-1.29-.31.4-1.86,3.06-1.86,3.25v13.22h20.41Z"/>
  </g>
  <text class="cls-1" transform="translate(22.6 277.38)"><tspan x="0" y="0">2025</tspan></text>
</svg>